<svg width="800" height="300" version="1.1" xmlns="http://www.w3.org/2000/svg">
 <g transform="matrix(2 0 0 2 0 -240.34)">
  <g id="background-0c8edace">
   <rect class="dcg-svg-background" width="400" height="400" fill="#fff"/>
  </g>
  <g id="graphpaper-0c8edace">
   <g id="axis-0c8edace"></g>
  </g>
  <g id="expressions-0c8edace">
   <g id="sketch-0c8edace">
    <title>3.8</title>
    <path class="dcg-svg-curve" d="m332.34 243.77h-290.71" fill="none" stroke="#2d70b3" stroke-linecap="round" stroke-linejoin="round" stroke-miterlimit="10" stroke-width="2.5" paint-order="fill stroke markers"/>
   </g>
   <g>
    <title>1.3</title>
    <path class="dcg-svg-curve" d="m332.34 243.77v-100.59" fill="none" stroke="#2d70b3" stroke-linecap="round" stroke-linejoin="round" stroke-miterlimit="10" stroke-width="2.5" paint-order="fill stroke markers"/>
   </g>
   <g>
    <title>Expression 1</title>
    <path class="dcg-svg-curve" d="m41.626 243.77 290.71-100.59" fill="none" stroke="#2d70b3" stroke-linecap="round" stroke-linejoin="round" stroke-miterlimit="10" stroke-width="2.5" paint-order="fill stroke markers"/>
   </g>
   <g>
    <title>Expression 1</title>
    <path class="dcg-svg-curve" d="m332.34 243.77v-20h-20v20h20" fill-opacity=".4" paint-order="stroke fill markers"/>
    <path class="dcg-svg-curve" d="m332.34 223.77h-20v20m20-30v30h-30" fill="none" stroke="#000" stroke-linecap="round" stroke-linejoin="round" stroke-miterlimit="10" stroke-opacity=".2" stroke-width="1.5" paint-order="fill stroke markers"/>
   </g>
   <g>
    <title>Expression 1</title>
   </g>
   <g>
    <title>Expression 1</title>
   </g>
   <g>
    <title>Expression 1</title>
   </g>
  </g>
  <g id="labels-0c8edace">
   <g transform="translate(176.5,221)">
    <g class="dcg-svg-label" font-family="arial, sans-serif" font-size="15.4px" font-weight="400" text-decoration="normal">
     <text y="13.822134" fill="none" stroke="#ffffff" stroke-linecap="round" stroke-linejoin="round" stroke-miterlimit="2" stroke-width="3">3.8</text>
     <text y="13.822134" fill="#2d70b3">3.8</text>
    </g>
   </g>
   <g transform="translate(337,184)">
    <g class="dcg-svg-label" font-family="arial, sans-serif" font-size="15.4px" font-weight="400" text-decoration="normal">
     <text y="13.822134" fill="none" stroke="#ffffff" stroke-linecap="round" stroke-linejoin="round" stroke-miterlimit="2" stroke-width="3">1.3</text>
     <text y="13.822134" fill="#2d70b3">1.3</text>
    </g>
   </g>
  </g>
  <g fill="#6042a6">
   <path class="dcg-svg-point" d="m336.34 243.77a4 4 0 1 1 0-4e-3z" paint-order="stroke fill markers"/>
   <path class="dcg-svg-point" d="m45.626 243.77a4 4 0 1 1-2e-6 -4e-3z" paint-order="stroke fill markers"/>
   <path class="dcg-svg-point" d="m336.34 143.18a4 4 0 1 1 0-4e-3z" paint-order="stroke fill markers"/>
  </g>
 </g>
</svg>
