<svg version="1.1" xmlns="http://www.w3.org/2000/svg" xmlns:xlink="http://www.w3.org/1999/xlink" width="2400" height="1600"><defs/><g transform="scale(2,2)"><g id="background-6adacb3b"><rect fill="white" stroke="none" x="0" y="0" width="1200" height="800" class="dcg-svg-background"/></g><g id="graphpaper-6adacb3b"><g id="axis-6adacb3b"><g id="yaxis-6adacb3b"><title>Y axis</title><g><path fill="none" stroke="rgb(0,0,0)" class="dcg-svg-axis-line" paint-order="fill stroke markers" d=" M 171 0 L 171 800" stroke-opacity="0.9" stroke-miterlimit="10" stroke-width="1.5" stroke-dasharray=""/></g></g><g id="xaxis-6adacb3b"><title>X axis</title><g><path fill="none" stroke="rgb(0,0,0)" class="dcg-svg-axis-line" paint-order="fill stroke markers" d=" M 0 600 L 1200 600" stroke-opacity="0.9" stroke-miterlimit="10" stroke-width="1.5" stroke-dasharray=""/></g></g><g><g class="dcg-svg-axis-value"><text fill="none" stroke="#ffffff" font-family="Arial" font-size="14px" font-style="normal" font-weight="normal" text-decoration="normal" x="162.53550502232144" y="615.808" text-anchor="middle" stroke-miterlimit="2" stroke-width="3" stroke-dasharray="">0</text><text fill="#000000" stroke="none" font-family="Arial" font-size="14px" font-style="normal" font-weight="normal" text-decoration="normal" x="162.53550502232144" y="615.808" text-anchor="middle">0</text></g><g><path fill="none" stroke="rgb(0,0,0)" class="dcg-svg-tickmark" paint-order="fill stroke markers" d=" M 51 597 L 51 603 M 292 597 L 292 603 M 413 597 L 413 603 M 534 597 L 534 603 M 654 597 L 654 603 M 775 597 L 775 603 M 896 597 L 896 603 M 1016 597 L 1016 603 M 1137 597 L 1137 603 M 168 728 L 174 728 M 168 472 L 174 472 M 168 344 L 174 344 M 168 215 L 174 215 M 168 87 L 174 87" stroke-opacity="0.9" stroke-miterlimit="2" stroke-width="1.5" stroke-dasharray=""/></g><g class="dcg-svg-axis-value"><text fill="none" stroke="#ffffff" font-family="Arial" font-size="14px" font-style="normal" font-weight="normal" text-decoration="normal" x="48.3731706646127" y="615.808" text-anchor="middle" stroke-miterlimit="2" stroke-width="3" stroke-dasharray="">-5</text><text fill="#000000" stroke="none" font-family="Arial" font-size="14px" font-style="normal" font-weight="normal" text-decoration="normal" x="48.3731706646127" y="615.808" text-anchor="middle">-5</text></g><g class="dcg-svg-axis-value"><text fill="none" stroke="#ffffff" font-family="Arial" font-size="14px" font-style="normal" font-weight="normal" text-decoration="normal" x="292.1529175050302" y="615.808" text-anchor="middle" stroke-miterlimit="2" stroke-width="3" stroke-dasharray="">5</text><text fill="#000000" stroke="none" font-family="Arial" font-size="14px" font-style="normal" font-weight="normal" text-decoration="normal" x="292.1529175050302" y="615.808" text-anchor="middle">5</text></g><g class="dcg-svg-axis-value"><text fill="none" stroke="#ffffff" font-family="Arial" font-size="14px" font-style="normal" font-weight="normal" text-decoration="normal" x="412.87726358148893" y="615.808" text-anchor="middle" stroke-miterlimit="2" stroke-width="3" stroke-dasharray="">10</text><text fill="#000000" stroke="none" font-family="Arial" font-size="14px" font-style="normal" font-weight="normal" text-decoration="normal" x="412.87726358148893" y="615.808" text-anchor="middle">10</text></g><g class="dcg-svg-axis-value"><text fill="none" stroke="#ffffff" font-family="Arial" font-size="14px" font-style="normal" font-weight="normal" text-decoration="normal" x="533.6016096579476" y="615.808" text-anchor="middle" stroke-miterlimit="2" stroke-width="3" stroke-dasharray="">15</text><text fill="#000000" stroke="none" font-family="Arial" font-size="14px" font-style="normal" font-weight="normal" text-decoration="normal" x="533.6016096579476" y="615.808" text-anchor="middle">15</text></g><g class="dcg-svg-axis-value"><text fill="none" stroke="#ffffff" font-family="Arial" font-size="14px" font-style="normal" font-weight="normal" text-decoration="normal" x="654.3259557344064" y="615.808" text-anchor="middle" stroke-miterlimit="2" stroke-width="3" stroke-dasharray="">20</text><text fill="#000000" stroke="none" font-family="Arial" font-size="14px" font-style="normal" font-weight="normal" text-decoration="normal" x="654.3259557344064" y="615.808" text-anchor="middle">20</text></g><g class="dcg-svg-axis-value"><text fill="none" stroke="#ffffff" font-family="Arial" font-size="14px" font-style="normal" font-weight="normal" text-decoration="normal" x="775.0503018108651" y="615.808" text-anchor="middle" stroke-miterlimit="2" stroke-width="3" stroke-dasharray="">25</text><text fill="#000000" stroke="none" font-family="Arial" font-size="14px" font-style="normal" font-weight="normal" text-decoration="normal" x="775.0503018108651" y="615.808" text-anchor="middle">25</text></g><g class="dcg-svg-axis-value"><text fill="none" stroke="#ffffff" font-family="Arial" font-size="14px" font-style="normal" font-weight="normal" text-decoration="normal" x="895.7746478873239" y="615.808" text-anchor="middle" stroke-miterlimit="2" stroke-width="3" stroke-dasharray="">30</text><text fill="#000000" stroke="none" font-family="Arial" font-size="14px" font-style="normal" font-weight="normal" text-decoration="normal" x="895.7746478873239" y="615.808" text-anchor="middle">30</text></g><g class="dcg-svg-axis-value"><text fill="none" stroke="#ffffff" font-family="Arial" font-size="14px" font-style="normal" font-weight="normal" text-decoration="normal" x="1016.4989939637827" y="615.808" text-anchor="middle" stroke-miterlimit="2" stroke-width="3" stroke-dasharray="">35</text><text fill="#000000" stroke="none" font-family="Arial" font-size="14px" font-style="normal" font-weight="normal" text-decoration="normal" x="1016.4989939637827" y="615.808" text-anchor="middle">35</text></g><g class="dcg-svg-axis-value"><text fill="none" stroke="#ffffff" font-family="Arial" font-size="14px" font-style="normal" font-weight="normal" text-decoration="normal" x="1137.2233400402415" y="615.808" text-anchor="middle" stroke-miterlimit="2" stroke-width="3" stroke-dasharray="">40</text><text fill="#000000" stroke="none" font-family="Arial" font-size="14px" font-style="normal" font-weight="normal" text-decoration="normal" x="1137.2233400402415" y="615.808" text-anchor="middle">40</text></g><g class="dcg-svg-axis-value"><text fill="none" stroke="#ffffff" font-family="Arial" font-size="14px" font-style="normal" font-weight="normal" text-decoration="normal" x="156.31138392857144" y="732.0131282051282" text-anchor="middle" stroke-miterlimit="2" stroke-width="3" stroke-dasharray="">-50</text><text fill="#000000" stroke="none" font-family="Arial" font-size="14px" font-style="normal" font-weight="normal" text-decoration="normal" x="156.31138392857144" y="732.0131282051282" text-anchor="middle">-50</text></g><g class="dcg-svg-axis-value"><text fill="none" stroke="#ffffff" font-family="Arial" font-size="14px" font-style="normal" font-weight="normal" text-decoration="normal" x="158.64243861607144" y="475.6028717948718" text-anchor="middle" stroke-miterlimit="2" stroke-width="3" stroke-dasharray="">50</text><text fill="#000000" stroke="none" font-family="Arial" font-size="14px" font-style="normal" font-weight="normal" text-decoration="normal" x="158.64243861607144" y="475.6028717948718" text-anchor="middle">50</text></g><g class="dcg-svg-axis-value"><text fill="none" stroke="#ffffff" font-family="Arial" font-size="14px" font-style="normal" font-weight="normal" text-decoration="normal" x="154.74937220982144" y="347.3977435897436" text-anchor="middle" stroke-miterlimit="2" stroke-width="3" stroke-dasharray="">100</text><text fill="#000000" stroke="none" font-family="Arial" font-size="14px" font-style="normal" font-weight="normal" text-decoration="normal" x="154.74937220982144" y="347.3977435897436" text-anchor="middle">100</text></g><g class="dcg-svg-axis-value"><text fill="none" stroke="#ffffff" font-family="Arial" font-size="14px" font-style="normal" font-weight="normal" text-decoration="normal" x="154.74937220982144" y="219.19261538461535" text-anchor="middle" stroke-miterlimit="2" stroke-width="3" stroke-dasharray="">150</text><text fill="#000000" stroke="none" font-family="Arial" font-size="14px" font-style="normal" font-weight="normal" text-decoration="normal" x="154.74937220982144" y="219.19261538461535" text-anchor="middle">150</text></g><g class="dcg-svg-axis-value"><text fill="none" stroke="#ffffff" font-family="Arial" font-size="14px" font-style="normal" font-weight="normal" text-decoration="normal" x="154.74937220982144" y="90.98748717948719" text-anchor="middle" stroke-miterlimit="2" stroke-width="3" stroke-dasharray="">200</text><text fill="#000000" stroke="none" font-family="Arial" font-size="14px" font-style="normal" font-weight="normal" text-decoration="normal" x="154.74937220982144" y="90.98748717948719" text-anchor="middle">200</text></g></g></g></g><g id="expressions-6adacb3b"><g id="sketch-6adacb3b"><title>Expression 2</title><path fill="#000000" stroke="none" class="dcg-svg-region" paint-order="stroke fill markers" d=" M 183.50100603621732 600 L 183.50100603621732 597.4358974358975 L 207.64587525150907 597.4358974358975 L 207.64587525150907 600 L 183.50100603621732 600 M 207.64587525150907 600 L 207.64587525150907 592.3076923076923 L 231.79074446680082 592.3076923076923 L 231.79074446680082 600 L 207.64587525150907 600 M 231.79074446680082 600 L 231.79074446680082 500 L 255.93561368209257 500 L 255.93561368209257 600 L 231.79074446680082 600 M 255.93561368209257 600 L 255.93561368209257 402.56410256410254 L 280.0804828973843 402.56410256410254 L 280.0804828973843 600 L 255.93561368209257 600 M 280.0804828973843 600 L 280.0804828973843 328.2051282051282 L 304.2253521126761 328.2051282051282 L 304.2253521126761 600 L 280.0804828973843 600 M 304.2253521126761 600 L 304.2253521126761 323.07692307692304 L 328.3702213279678 323.07692307692304 L 328.3702213279678 600 L 304.2253521126761 600 M 328.3702213279678 600 L 328.3702213279678 279.48717948717945 L 352.5150905432596 279.48717948717945 L 352.5150905432596 600 L 328.3702213279678 600 M 352.5150905432596 600 L 352.5150905432596 276.9230769230769 L 376.6599597585513 276.9230769230769 L 376.6599597585513 600 L 352.5150905432596 600 M 376.6599597585513 600 L 376.6599597585513 199.99999999999994 L 400.8048289738431 199.99999999999994 L 400.8048289738431 600 L 376.6599597585513 600 M 400.8048289738431 600 L 400.8048289738431 238.46153846153845 L 424.9496981891348 238.46153846153845 L 424.9496981891348 600 L 400.8048289738431 600 M 424.9496981891348 600 L 424.9496981891348 279.48717948717945 L 449.0945674044266 279.48717948717945 L 449.0945674044266 600 L 424.9496981891348 600 M 449.0945674044266 600 L 449.0945674044266 266.66666666666663 L 473.2394366197183 266.66666666666663 L 473.2394366197183 600 L 449.0945674044266 600 M 473.2394366197183 600 L 473.2394366197183 341.025641025641 L 497.3843058350101 341.025641025641 L 497.3843058350101 600 L 473.2394366197183 600 M 497.3843058350101 600 L 497.3843058350101 384.6153846153846 L 521.5291750503018 384.6153846153846 L 521.5291750503018 600 L 497.3843058350101 600 M 521.5291750503018 600 L 521.5291750503018 428.2051282051282 L 545.6740442655936 428.2051282051282 L 545.6740442655936 600 L 521.5291750503018 600 M 545.6740442655936 600 L 545.6740442655936 466.66666666666663 L 569.8189134808853 466.66666666666663 L 569.8189134808853 600 L 545.6740442655936 600 M 569.8189134808853 600 L 569.8189134808853 469.2307692307692 L 593.9637826961771 469.2307692307692 L 593.9637826961771 600 L 569.8189134808853 600 M 593.9637826961771 600 L 593.9637826961771 484.6153846153846 L 618.1086519114688 484.6153846153846 L 618.1086519114688 600 L 593.9637826961771 600 M 618.1086519114688 600 L 618.1086519114688 487.1794871794872 L 642.2535211267606 487.1794871794872 L 642.2535211267606 600 L 618.1086519114688 600 M 642.2535211267606 600 L 642.2535211267606 487.1794871794872 L 666.3983903420523 487.1794871794872 L 666.3983903420523 600 L 642.2535211267606 600 M 666.3983903420523 600 L 666.3983903420523 569.2307692307693 L 690.5432595573441 569.2307692307693 L 690.5432595573441 600 L 666.3983903420523 600 M 690.5432595573441 600 L 690.5432595573441 558.974358974359 L 714.6881287726358 558.974358974359 L 714.6881287726358 600 L 690.5432595573441 600 M 714.6881287726358 600 L 714.6881287726358 569.2307692307693 L 738.8329979879276 569.2307692307693 L 738.8329979879276 600 L 714.6881287726358 600 M 738.8329979879276 600 L 738.8329979879276 589.7435897435897 L 762.9778672032193 589.7435897435897 L 762.9778672032193 600 L 738.8329979879276 600 M 762.9778672032193 600 L 762.9778672032193 589.7435897435897 L 787.1227364185111 589.7435897435897 L 787.1227364185111 600 L 762.9778672032193 600 M 787.1227364185111 600 L 787.1227364185111 592.3076923076923 L 811.2676056338028 592.3076923076923 L 811.2676056338028 600 L 787.1227364185111 600 M 811.2676056338028 600 L 811.2676056338028 589.7435897435897 L 835.4124748490946 589.7435897435897 L 835.4124748490946 600 L 811.2676056338028 600 M 835.4124748490946 600 L 835.4124748490946 584.6153846153846 L 859.5573440643863 584.6153846153846 L 859.5573440643863 600 L 835.4124748490946 600 M 859.5573440643863 600 L 859.5573440643863 587.1794871794872 L 883.7022132796781 587.1794871794872 L 883.7022132796781 600 L 859.5573440643863 600 M 883.7022132796781 600 L 883.7022132796781 594.8717948717949 L 907.8470824949698 594.8717948717949 L 907.8470824949698 600 L 883.7022132796781 600 M 907.8470824949698 600 L 907.8470824949698 587.1794871794872 L 931.9919517102616 587.1794871794872 L 931.9919517102616 600 L 907.8470824949698 600 M 931.9919517102616 600 L 931.9919517102616 597.4358974358975 L 956.1368209255533 597.4358974358975 L 956.1368209255533 600 L 931.9919517102616 600 M 956.1368209255533 600 L 956.1368209255533 594.8717948717949 L 980.2816901408451 594.8717948717949 L 980.2816901408451 600 L 956.1368209255533 600 M 980.2816901408451 600 L 980.2816901408451 597.4358974358975 L 1004.4265593561367 597.4358974358975 L 1004.4265593561367 600 L 980.2816901408451 600 M 1004.4265593561367 600 L 1004.4265593561367 597.4358974358975 L 1028.5714285714284 597.4358974358975 L 1028.5714285714284 600 L 1004.4265593561367 600" fill-opacity="0.4"/><path fill="#000000" stroke="none" paint-order="stroke fill markers" d="" fill-opacity="0.4"/><g><path fill="none" stroke="#000000" class="dcg-svg-curve" paint-order="fill stroke markers" d=" M 183.50100603621732 600 L 183.50100603621732 600 L 183.50100603621732 597.4358974358975 L 207.64587525150907 597.4358974358975" stroke-linecap="round" stroke-linejoin="round" stroke-miterlimit="10" stroke-width="2.5" stroke-dasharray=""/></g><g><path fill="none" stroke="#000000" class="dcg-svg-curve" paint-order="fill stroke markers" d=" M 207.64587525150907 600 L 207.64587525150907 600 L 207.64587525150907 592.3076923076923 L 231.79074446680082 592.3076923076923" stroke-linecap="round" stroke-linejoin="round" stroke-miterlimit="10" stroke-width="2.5" stroke-dasharray=""/></g><g><path fill="none" stroke="#000000" class="dcg-svg-curve" paint-order="fill stroke markers" d=" M 231.79074446680082 600 L 231.79074446680082 600 L 231.79074446680082 500 L 255.93561368209257 500" stroke-linecap="round" stroke-linejoin="round" stroke-miterlimit="10" stroke-width="2.5" stroke-dasharray=""/></g><g><path fill="none" stroke="#000000" class="dcg-svg-curve" paint-order="fill stroke markers" d=" M 255.93561368209257 600 L 255.93561368209257 600 L 255.93561368209257 402.56410256410254 L 280.0804828973843 402.56410256410254" stroke-linecap="round" stroke-linejoin="round" stroke-miterlimit="10" stroke-width="2.5" stroke-dasharray=""/></g><g><path fill="none" stroke="#000000" class="dcg-svg-curve" paint-order="fill stroke markers" d=" M 280.0804828973843 600 L 280.0804828973843 600 L 280.0804828973843 328.2051282051282 L 304.2253521126761 328.2051282051282" stroke-linecap="round" stroke-linejoin="round" stroke-miterlimit="10" stroke-width="2.5" stroke-dasharray=""/></g><g><path fill="none" stroke="#000000" class="dcg-svg-curve" paint-order="fill stroke markers" d=" M 304.2253521126761 600 L 304.2253521126761 600 L 304.2253521126761 323.07692307692304 L 328.3702213279678 323.07692307692304" stroke-linecap="round" stroke-linejoin="round" stroke-miterlimit="10" stroke-width="2.5" stroke-dasharray=""/></g><g><path fill="none" stroke="#000000" class="dcg-svg-curve" paint-order="fill stroke markers" d=" M 328.3702213279678 600 L 328.3702213279678 600 L 328.3702213279678 279.48717948717945 L 352.5150905432596 279.48717948717945" stroke-linecap="round" stroke-linejoin="round" stroke-miterlimit="10" stroke-width="2.5" stroke-dasharray=""/></g><g><path fill="none" stroke="#000000" class="dcg-svg-curve" paint-order="fill stroke markers" d=" M 352.5150905432596 600 L 352.5150905432596 600 L 352.5150905432596 276.9230769230769 L 376.6599597585513 276.9230769230769" stroke-linecap="round" stroke-linejoin="round" stroke-miterlimit="10" stroke-width="2.5" stroke-dasharray=""/></g><g><path fill="none" stroke="#000000" class="dcg-svg-curve" paint-order="fill stroke markers" d=" M 376.6599597585513 600 L 376.6599597585513 600 L 376.6599597585513 199.99999999999994 L 400.8048289738431 199.99999999999994 L 400.8048289738431 238.46153846153845" stroke-linecap="round" stroke-linejoin="round" stroke-miterlimit="10" stroke-width="2.5" stroke-dasharray=""/></g><g><path fill="none" stroke="#000000" class="dcg-svg-curve" paint-order="fill stroke markers" d=" M 400.8048289738431 600 L 400.8048289738431 600 L 400.8048289738431 238.46153846153845 L 424.9496981891348 238.46153846153845 L 424.9496981891348 279.48717948717945" stroke-linecap="round" stroke-linejoin="round" stroke-miterlimit="10" stroke-width="2.5" stroke-dasharray=""/></g><g><path fill="none" stroke="#000000" class="dcg-svg-curve" paint-order="fill stroke markers" d=" M 424.9496981891348 600 L 424.9496981891348 600 L 424.9496981891348 279.48717948717945 L 449.0945674044266 279.48717948717945" stroke-linecap="round" stroke-linejoin="round" stroke-miterlimit="10" stroke-width="2.5" stroke-dasharray=""/></g><g><path fill="none" stroke="#000000" class="dcg-svg-curve" paint-order="fill stroke markers" d=" M 449.0945674044266 600 L 449.0945674044266 600 L 449.0945674044266 266.66666666666663 L 473.2394366197183 266.66666666666663 L 473.2394366197183 341.025641025641" stroke-linecap="round" stroke-linejoin="round" stroke-miterlimit="10" stroke-width="2.5" stroke-dasharray=""/></g><g><path fill="none" stroke="#000000" class="dcg-svg-curve" paint-order="fill stroke markers" d=" M 473.2394366197183 600 L 473.2394366197183 600 L 473.2394366197183 341.025641025641 L 497.3843058350101 341.025641025641 L 497.3843058350101 384.6153846153846" stroke-linecap="round" stroke-linejoin="round" stroke-miterlimit="10" stroke-width="2.5" stroke-dasharray=""/></g><g><path fill="none" stroke="#000000" class="dcg-svg-curve" paint-order="fill stroke markers" d=" M 497.3843058350101 600 L 497.3843058350101 600 L 497.3843058350101 384.6153846153846 L 521.5291750503018 384.6153846153846 L 521.5291750503018 428.2051282051282" stroke-linecap="round" stroke-linejoin="round" stroke-miterlimit="10" stroke-width="2.5" stroke-dasharray=""/></g><g><path fill="none" stroke="#000000" class="dcg-svg-curve" paint-order="fill stroke markers" d=" M 521.5291750503018 600 L 521.5291750503018 600 L 521.5291750503018 428.2051282051282 L 545.6740442655936 428.2051282051282 L 545.6740442655936 466.66666666666663" stroke-linecap="round" stroke-linejoin="round" stroke-miterlimit="10" stroke-width="2.5" stroke-dasharray=""/></g><g><path fill="none" stroke="#000000" class="dcg-svg-curve" paint-order="fill stroke markers" d=" M 545.6740442655936 600 L 545.6740442655936 600 L 545.6740442655936 466.66666666666663 L 569.8189134808853 466.66666666666663 L 569.8189134808853 469.2307692307692" stroke-linecap="round" stroke-linejoin="round" stroke-miterlimit="10" stroke-width="2.5" stroke-dasharray=""/></g><g><path fill="none" stroke="#000000" class="dcg-svg-curve" paint-order="fill stroke markers" d=" M 569.8189134808853 600 L 569.8189134808853 600 L 569.8189134808853 469.2307692307692 L 593.9637826961771 469.2307692307692 L 593.9637826961771 484.6153846153846" stroke-linecap="round" stroke-linejoin="round" stroke-miterlimit="10" stroke-width="2.5" stroke-dasharray=""/></g><g><path fill="none" stroke="#000000" class="dcg-svg-curve" paint-order="fill stroke markers" d=" M 593.9637826961771 600 L 593.9637826961771 600 L 593.9637826961771 484.6153846153846 L 618.1086519114688 484.6153846153846 L 618.1086519114688 487.1794871794872" stroke-linecap="round" stroke-linejoin="round" stroke-miterlimit="10" stroke-width="2.5" stroke-dasharray=""/></g><g><path fill="none" stroke="#000000" class="dcg-svg-curve" paint-order="fill stroke markers" d=" M 618.1086519114688 600 L 618.1086519114688 600 L 618.1086519114688 487.1794871794872 L 642.2535211267606 487.1794871794872" stroke-linecap="round" stroke-linejoin="round" stroke-miterlimit="10" stroke-width="2.5" stroke-dasharray=""/></g><g><path fill="none" stroke="#000000" class="dcg-svg-curve" paint-order="fill stroke markers" d=" M 642.2535211267606 600 L 642.2535211267606 600 L 642.2535211267606 487.1794871794872 L 666.3983903420523 487.1794871794872 L 666.3983903420523 569.2307692307693" stroke-linecap="round" stroke-linejoin="round" stroke-miterlimit="10" stroke-width="2.5" stroke-dasharray=""/></g><g><path fill="none" stroke="#000000" class="dcg-svg-curve" paint-order="fill stroke markers" d=" M 666.3983903420523 600 L 666.3983903420523 600 L 666.3983903420523 569.2307692307693 L 690.5432595573441 569.2307692307693" stroke-linecap="round" stroke-linejoin="round" stroke-miterlimit="10" stroke-width="2.5" stroke-dasharray=""/></g><g><path fill="none" stroke="#000000" class="dcg-svg-curve" paint-order="fill stroke markers" d=" M 690.5432595573441 600 L 690.5432595573441 600 L 690.5432595573441 558.974358974359 L 714.6881287726358 558.974358974359 L 714.6881287726358 569.2307692307693" stroke-linecap="round" stroke-linejoin="round" stroke-miterlimit="10" stroke-width="2.5" stroke-dasharray=""/></g><g><path fill="none" stroke="#000000" class="dcg-svg-curve" paint-order="fill stroke markers" d=" M 714.6881287726358 600 L 714.6881287726358 600 L 714.6881287726358 569.2307692307693 L 738.8329979879276 569.2307692307693 L 738.8329979879276 589.7435897435897" stroke-linecap="round" stroke-linejoin="round" stroke-miterlimit="10" stroke-width="2.5" stroke-dasharray=""/></g><g><path fill="none" stroke="#000000" class="dcg-svg-curve" paint-order="fill stroke markers" d=" M 738.8329979879276 600 L 738.8329979879276 600 L 738.8329979879276 589.7435897435897 L 762.9778672032193 589.7435897435897" stroke-linecap="round" stroke-linejoin="round" stroke-miterlimit="10" stroke-width="2.5" stroke-dasharray=""/></g><g><path fill="none" stroke="#000000" class="dcg-svg-curve" paint-order="fill stroke markers" d=" M 762.9778672032193 600 L 762.9778672032193 600 L 762.9778672032193 589.7435897435897 L 787.1227364185111 589.7435897435897 L 787.1227364185111 592.3076923076923" stroke-linecap="round" stroke-linejoin="round" stroke-miterlimit="10" stroke-width="2.5" stroke-dasharray=""/></g><g><path fill="none" stroke="#000000" class="dcg-svg-curve" paint-order="fill stroke markers" d=" M 787.1227364185111 600 L 787.1227364185111 600 L 787.1227364185111 592.3076923076923 L 811.2676056338028 592.3076923076923" stroke-linecap="round" stroke-linejoin="round" stroke-miterlimit="10" stroke-width="2.5" stroke-dasharray=""/></g><g><path fill="none" stroke="#000000" class="dcg-svg-curve" paint-order="fill stroke markers" d=" M 811.2676056338028 600 L 811.2676056338028 600 L 811.2676056338028 589.7435897435897 L 835.4124748490946 589.7435897435897" stroke-linecap="round" stroke-linejoin="round" stroke-miterlimit="10" stroke-width="2.5" stroke-dasharray=""/></g><g><path fill="none" stroke="#000000" class="dcg-svg-curve" paint-order="fill stroke markers" d=" M 835.4124748490946 600 L 835.4124748490946 600 L 835.4124748490946 584.6153846153846 L 859.5573440643863 584.6153846153846 L 859.5573440643863 587.1794871794872" stroke-linecap="round" stroke-linejoin="round" stroke-miterlimit="10" stroke-width="2.5" stroke-dasharray=""/></g><g><path fill="none" stroke="#000000" class="dcg-svg-curve" paint-order="fill stroke markers" d=" M 859.5573440643863 600 L 859.5573440643863 600 L 859.5573440643863 587.1794871794872 L 883.7022132796781 587.1794871794872 L 883.7022132796781 594.8717948717949" stroke-linecap="round" stroke-linejoin="round" stroke-miterlimit="10" stroke-width="2.5" stroke-dasharray=""/></g><g><path fill="none" stroke="#000000" class="dcg-svg-curve" paint-order="fill stroke markers" d=" M 883.7022132796781 600 L 883.7022132796781 600 L 883.7022132796781 594.8717948717949 L 907.8470824949698 594.8717948717949" stroke-linecap="round" stroke-linejoin="round" stroke-miterlimit="10" stroke-width="2.5" stroke-dasharray=""/></g><g><path fill="none" stroke="#000000" class="dcg-svg-curve" paint-order="fill stroke markers" d=" M 907.8470824949698 600 L 907.8470824949698 600 L 907.8470824949698 587.1794871794872 L 931.9919517102616 587.1794871794872 L 931.9919517102616 597.4358974358975" stroke-linecap="round" stroke-linejoin="round" stroke-miterlimit="10" stroke-width="2.5" stroke-dasharray=""/></g><g><path fill="none" stroke="#000000" class="dcg-svg-curve" paint-order="fill stroke markers" d=" M 931.9919517102616 600 L 931.9919517102616 600 L 931.9919517102616 597.4358974358975 L 956.1368209255533 597.4358974358975" stroke-linecap="round" stroke-linejoin="round" stroke-miterlimit="10" stroke-width="2.5" stroke-dasharray=""/></g><g><path fill="none" stroke="#000000" class="dcg-svg-curve" paint-order="fill stroke markers" d=" M 956.1368209255533 600 L 956.1368209255533 600 L 956.1368209255533 594.8717948717949 L 980.2816901408451 594.8717948717949 L 980.2816901408451 597.4358974358975" stroke-linecap="round" stroke-linejoin="round" stroke-miterlimit="10" stroke-width="2.5" stroke-dasharray=""/></g><g><path fill="none" stroke="#000000" class="dcg-svg-curve" paint-order="fill stroke markers" d=" M 980.2816901408451 600 L 980.2816901408451 600 L 980.2816901408451 597.4358974358975 L 1004.4265593561367 597.4358974358975" stroke-linecap="round" stroke-linejoin="round" stroke-miterlimit="10" stroke-width="2.5" stroke-dasharray=""/></g><g><path fill="none" stroke="#000000" class="dcg-svg-curve" paint-order="fill stroke markers" d=" M 1004.4265593561367 600 L 1004.4265593561367 600 L 1004.4265593561367 597.4358974358975 L 1028.5714285714284 597.4358974358975 L 1028.5714285714284 600" stroke-linecap="round" stroke-linejoin="round" stroke-miterlimit="10" stroke-width="2.5" stroke-dasharray=""/></g></g><g id="sketch-6adacb3b"><title>Expression 3</title><path fill="#c74440" stroke="none" paint-order="stroke fill markers" d="" fill-opacity="0.4"/><g><path fill="none" stroke="#c74440" class="dcg-svg-curve" paint-order="fill stroke markers" d=" M 340.4426559356137 184.61538461538458 L 340.4426559356137 184.61538461538458 L 509.4567404426559 184.61538461538458 L 509.4567404426559 158.97435897435895 L 340.4426559356137 158.97435897435895 L 340.4426559356137 184.61538461538458" stroke-linecap="round" stroke-linejoin="round" stroke-miterlimit="10" stroke-width="2.5" stroke-dasharray=""/></g><g><path fill="none" stroke="#c74440" class="dcg-svg-curve" paint-order="fill stroke markers" d=" M 412.87726358148893 184.61538461538458 L 412.87726358148893 184.61538461538458 L 412.87726358148893 158.97435897435895" stroke-linecap="round" stroke-linejoin="round" stroke-miterlimit="10" stroke-width="2.5" stroke-dasharray=""/></g><g><path fill="none" stroke="#c74440" class="dcg-svg-curve" paint-order="fill stroke markers" d=" M 340.4426559356137 171.79487179487177 L 340.4426559356137 171.79487179487177 L 195.5734406438632 171.79487179487177" stroke-linecap="round" stroke-linejoin="round" stroke-miterlimit="10" stroke-width="2.5" stroke-dasharray=""/></g><g><path fill="none" stroke="#c74440" class="dcg-svg-curve" paint-order="fill stroke markers" d=" M 509.4567404426559 171.79487179487177 L 509.4567404426559 171.79487179487177 L 750.9054325955734 171.79487179487177" stroke-linecap="round" stroke-linejoin="round" stroke-miterlimit="10" stroke-width="2.5" stroke-dasharray=""/></g><g><path fill="none" stroke="#c74440" class="dcg-svg-curve" paint-order="fill stroke markers" d=" M 195.5734406438632 174.3589743589743 L 195.5734406438632 174.3589743589743 L 195.5734406438632 169.23076923076917" stroke-linecap="round" stroke-linejoin="round" stroke-miterlimit="10" stroke-width="2.5" stroke-dasharray=""/></g><g><path fill="none" stroke="#c74440" class="dcg-svg-curve" paint-order="fill stroke markers" d=" M 750.9054325955734 174.3589743589743 L 750.9054325955734 174.3589743589743 L 750.9054325955734 169.23076923076917" stroke-linecap="round" stroke-linejoin="round" stroke-miterlimit="10" stroke-width="2.5" stroke-dasharray=""/></g><path fill="#c74440" stroke="none" class="dcg-svg-point" paint-order="stroke fill markers" d=" M 1020.2489939637827 171.79487179487177 A 3.75 3.75 0 1 1 1020.2489920887829 171.79112179549676 L 1018.3739939637827 171.79487179487177 A 1.875 1.875 0 1 0 1018.3739930262827 171.79674679455925 Z" fill-opacity="0.9"/><path fill="white" stroke="none" class="dcg-svg-point" paint-order="stroke fill markers" d=" M 1018.3739939637827 171.79487179487177 A 1.875 1.875 0 1 1 1018.3739930262827 171.79299679518428 Z" fill-opacity="0.9"/><path fill="#c74440" stroke="none" class="dcg-svg-point" paint-order="stroke fill markers" d=" M 996.1041247484909 171.79487179487177 A 3.75 3.75 0 1 1 996.1041228734911 171.79112179549676 L 994.2291247484909 171.79487179487177 A 1.875 1.875 0 1 0 994.2291238109909 171.79674679455925 Z" fill-opacity="0.9"/><path fill="white" stroke="none" class="dcg-svg-point" paint-order="stroke fill markers" d=" M 994.2291247484909 171.79487179487177 A 1.875 1.875 0 1 1 994.2291238109909 171.79299679518428 Z" fill-opacity="0.9"/><path fill="#c74440" stroke="none" class="dcg-svg-point" paint-order="stroke fill markers" d=" M 971.9592555331991 171.79487179487177 A 3.75 3.75 0 1 1 971.9592536581993 171.79112179549676 L 970.0842555331991 171.79487179487177 A 1.875 1.875 0 1 0 970.0842545956991 171.79674679455925 Z" fill-opacity="0.9"/><path fill="white" stroke="none" class="dcg-svg-point" paint-order="stroke fill markers" d=" M 970.0842555331991 171.79487179487177 A 1.875 1.875 0 1 1 970.0842545956991 171.79299679518428 Z" fill-opacity="0.9"/><path fill="#c74440" stroke="none" class="dcg-svg-point" paint-order="stroke fill markers" d=" M 971.9592555331991 171.79487179487177 A 3.75 3.75 0 1 1 971.9592536581993 171.79112179549676 L 970.0842555331991 171.79487179487177 A 1.875 1.875 0 1 0 970.0842545956991 171.79674679455925 Z" fill-opacity="0.9"/><path fill="white" stroke="none" class="dcg-svg-point" paint-order="stroke fill markers" d=" M 970.0842555331991 171.79487179487177 A 1.875 1.875 0 1 1 970.0842545956991 171.79299679518428 Z" fill-opacity="0.9"/><path fill="#c74440" stroke="none" class="dcg-svg-point" paint-order="stroke fill markers" d=" M 947.8143863179074 171.79487179487177 A 3.75 3.75 0 1 1 947.8143844429076 171.79112179549676 L 945.9393863179074 171.79487179487177 A 1.875 1.875 0 1 0 945.9393853804074 171.79674679455925 Z" fill-opacity="0.9"/><path fill="white" stroke="none" class="dcg-svg-point" paint-order="stroke fill markers" d=" M 945.9393863179074 171.79487179487177 A 1.875 1.875 0 1 1 945.9393853804074 171.79299679518428 Z" fill-opacity="0.9"/><path fill="#c74440" stroke="none" class="dcg-svg-point" paint-order="stroke fill markers" d=" M 923.6695171026157 171.79487179487177 A 3.75 3.75 0 1 1 923.6695152276159 171.79112179549676 L 921.7945171026157 171.79487179487177 A 1.875 1.875 0 1 0 921.7945161651157 171.79674679455925 Z" fill-opacity="0.9"/><path fill="white" stroke="none" class="dcg-svg-point" paint-order="stroke fill markers" d=" M 921.7945171026157 171.79487179487177 A 1.875 1.875 0 1 1 921.7945161651157 171.79299679518428 Z" fill-opacity="0.9"/><path fill="#c74440" stroke="none" class="dcg-svg-point" paint-order="stroke fill markers" d=" M 923.6695171026157 171.79487179487177 A 3.75 3.75 0 1 1 923.6695152276159 171.79112179549676 L 921.7945171026157 171.79487179487177 A 1.875 1.875 0 1 0 921.7945161651157 171.79674679455925 Z" fill-opacity="0.9"/><path fill="white" stroke="none" class="dcg-svg-point" paint-order="stroke fill markers" d=" M 921.7945171026157 171.79487179487177 A 1.875 1.875 0 1 1 921.7945161651157 171.79299679518428 Z" fill-opacity="0.9"/><path fill="#c74440" stroke="none" class="dcg-svg-point" paint-order="stroke fill markers" d=" M 923.6695171026157 171.79487179487177 A 3.75 3.75 0 1 1 923.6695152276159 171.79112179549676 L 921.7945171026157 171.79487179487177 A 1.875 1.875 0 1 0 921.7945161651157 171.79674679455925 Z" fill-opacity="0.9"/><path fill="white" stroke="none" class="dcg-svg-point" paint-order="stroke fill markers" d=" M 921.7945171026157 171.79487179487177 A 1.875 1.875 0 1 1 921.7945161651157 171.79299679518428 Z" fill-opacity="0.9"/><path fill="#c74440" stroke="none" class="dcg-svg-point" paint-order="stroke fill markers" d=" M 923.6695171026157 171.79487179487177 A 3.75 3.75 0 1 1 923.6695152276159 171.79112179549676 L 921.7945171026157 171.79487179487177 A 1.875 1.875 0 1 0 921.7945161651157 171.79674679455925 Z" fill-opacity="0.9"/><path fill="white" stroke="none" class="dcg-svg-point" paint-order="stroke fill markers" d=" M 921.7945171026157 171.79487179487177 A 1.875 1.875 0 1 1 921.7945161651157 171.79299679518428 Z" fill-opacity="0.9"/><path fill="#c74440" stroke="none" class="dcg-svg-point" paint-order="stroke fill markers" d=" M 923.6695171026157 171.79487179487177 A 3.75 3.75 0 1 1 923.6695152276159 171.79112179549676 L 921.7945171026157 171.79487179487177 A 1.875 1.875 0 1 0 921.7945161651157 171.79674679455925 Z" fill-opacity="0.9"/><path fill="white" stroke="none" class="dcg-svg-point" paint-order="stroke fill markers" d=" M 921.7945171026157 171.79487179487177 A 1.875 1.875 0 1 1 921.7945161651157 171.79299679518428 Z" fill-opacity="0.9"/><path fill="#c74440" stroke="none" class="dcg-svg-point" paint-order="stroke fill markers" d=" M 899.5246478873239 171.79487179487177 A 3.75 3.75 0 1 1 899.5246460123241 171.79112179549676 L 897.6496478873239 171.79487179487177 A 1.875 1.875 0 1 0 897.6496469498239 171.79674679455925 Z" fill-opacity="0.9"/><path fill="white" stroke="none" class="dcg-svg-point" paint-order="stroke fill markers" d=" M 897.6496478873239 171.79487179487177 A 1.875 1.875 0 1 1 897.6496469498239 171.79299679518428 Z" fill-opacity="0.9"/><path fill="#c74440" stroke="none" class="dcg-svg-point" paint-order="stroke fill markers" d=" M 899.5246478873239 171.79487179487177 A 3.75 3.75 0 1 1 899.5246460123241 171.79112179549676 L 897.6496478873239 171.79487179487177 A 1.875 1.875 0 1 0 897.6496469498239 171.79674679455925 Z" fill-opacity="0.9"/><path fill="white" stroke="none" class="dcg-svg-point" paint-order="stroke fill markers" d=" M 897.6496478873239 171.79487179487177 A 1.875 1.875 0 1 1 897.6496469498239 171.79299679518428 Z" fill-opacity="0.9"/><path fill="#c74440" stroke="none" class="dcg-svg-point" paint-order="stroke fill markers" d=" M 875.3797786720321 171.79487179487177 A 3.75 3.75 0 1 1 875.3797767970323 171.79112179549676 L 873.5047786720321 171.79487179487177 A 1.875 1.875 0 1 0 873.5047777345321 171.79674679455925 Z" fill-opacity="0.9"/><path fill="white" stroke="none" class="dcg-svg-point" paint-order="stroke fill markers" d=" M 873.5047786720321 171.79487179487177 A 1.875 1.875 0 1 1 873.5047777345321 171.79299679518428 Z" fill-opacity="0.9"/><path fill="#c74440" stroke="none" class="dcg-svg-point" paint-order="stroke fill markers" d=" M 875.3797786720321 171.79487179487177 A 3.75 3.75 0 1 1 875.3797767970323 171.79112179549676 L 873.5047786720321 171.79487179487177 A 1.875 1.875 0 1 0 873.5047777345321 171.79674679455925 Z" fill-opacity="0.9"/><path fill="white" stroke="none" class="dcg-svg-point" paint-order="stroke fill markers" d=" M 873.5047786720321 171.79487179487177 A 1.875 1.875 0 1 1 873.5047777345321 171.79299679518428 Z" fill-opacity="0.9"/><path fill="#c74440" stroke="none" class="dcg-svg-point" paint-order="stroke fill markers" d=" M 875.3797786720321 171.79487179487177 A 3.75 3.75 0 1 1 875.3797767970323 171.79112179549676 L 873.5047786720321 171.79487179487177 A 1.875 1.875 0 1 0 873.5047777345321 171.79674679455925 Z" fill-opacity="0.9"/><path fill="white" stroke="none" class="dcg-svg-point" paint-order="stroke fill markers" d=" M 873.5047786720321 171.79487179487177 A 1.875 1.875 0 1 1 873.5047777345321 171.79299679518428 Z" fill-opacity="0.9"/><path fill="#c74440" stroke="none" class="dcg-svg-point" paint-order="stroke fill markers" d=" M 875.3797786720321 171.79487179487177 A 3.75 3.75 0 1 1 875.3797767970323 171.79112179549676 L 873.5047786720321 171.79487179487177 A 1.875 1.875 0 1 0 873.5047777345321 171.79674679455925 Z" fill-opacity="0.9"/><path fill="white" stroke="none" class="dcg-svg-point" paint-order="stroke fill markers" d=" M 873.5047786720321 171.79487179487177 A 1.875 1.875 0 1 1 873.5047777345321 171.79299679518428 Z" fill-opacity="0.9"/><path fill="#c74440" stroke="none" class="dcg-svg-point" paint-order="stroke fill markers" d=" M 875.3797786720321 171.79487179487177 A 3.75 3.75 0 1 1 875.3797767970323 171.79112179549676 L 873.5047786720321 171.79487179487177 A 1.875 1.875 0 1 0 873.5047777345321 171.79674679455925 Z" fill-opacity="0.9"/><path fill="white" stroke="none" class="dcg-svg-point" paint-order="stroke fill markers" d=" M 873.5047786720321 171.79487179487177 A 1.875 1.875 0 1 1 873.5047777345321 171.79299679518428 Z" fill-opacity="0.9"/><path fill="#c74440" stroke="none" class="dcg-svg-point" paint-order="stroke fill markers" d=" M 851.2349094567404 171.79487179487177 A 3.75 3.75 0 1 1 851.2349075817406 171.79112179549676 L 849.3599094567404 171.79487179487177 A 1.875 1.875 0 1 0 849.3599085192404 171.79674679455925 Z" fill-opacity="0.9"/><path fill="white" stroke="none" class="dcg-svg-point" paint-order="stroke fill markers" d=" M 849.3599094567404 171.79487179487177 A 1.875 1.875 0 1 1 849.3599085192404 171.79299679518428 Z" fill-opacity="0.9"/><path fill="#c74440" stroke="none" class="dcg-svg-point" paint-order="stroke fill markers" d=" M 851.2349094567404 171.79487179487177 A 3.75 3.75 0 1 1 851.2349075817406 171.79112179549676 L 849.3599094567404 171.79487179487177 A 1.875 1.875 0 1 0 849.3599085192404 171.79674679455925 Z" fill-opacity="0.9"/><path fill="white" stroke="none" class="dcg-svg-point" paint-order="stroke fill markers" d=" M 849.3599094567404 171.79487179487177 A 1.875 1.875 0 1 1 849.3599085192404 171.79299679518428 Z" fill-opacity="0.9"/><path fill="#c74440" stroke="none" class="dcg-svg-point" paint-order="stroke fill markers" d=" M 851.2349094567404 171.79487179487177 A 3.75 3.75 0 1 1 851.2349075817406 171.79112179549676 L 849.3599094567404 171.79487179487177 A 1.875 1.875 0 1 0 849.3599085192404 171.79674679455925 Z" fill-opacity="0.9"/><path fill="white" stroke="none" class="dcg-svg-point" paint-order="stroke fill markers" d=" M 849.3599094567404 171.79487179487177 A 1.875 1.875 0 1 1 849.3599085192404 171.79299679518428 Z" fill-opacity="0.9"/><path fill="#c74440" stroke="none" class="dcg-svg-point" paint-order="stroke fill markers" d=" M 851.2349094567404 171.79487179487177 A 3.75 3.75 0 1 1 851.2349075817406 171.79112179549676 L 849.3599094567404 171.79487179487177 A 1.875 1.875 0 1 0 849.3599085192404 171.79674679455925 Z" fill-opacity="0.9"/><path fill="white" stroke="none" class="dcg-svg-point" paint-order="stroke fill markers" d=" M 849.3599094567404 171.79487179487177 A 1.875 1.875 0 1 1 849.3599085192404 171.79299679518428 Z" fill-opacity="0.9"/><path fill="#c74440" stroke="none" class="dcg-svg-point" paint-order="stroke fill markers" d=" M 851.2349094567404 171.79487179487177 A 3.75 3.75 0 1 1 851.2349075817406 171.79112179549676 L 849.3599094567404 171.79487179487177 A 1.875 1.875 0 1 0 849.3599085192404 171.79674679455925 Z" fill-opacity="0.9"/><path fill="white" stroke="none" class="dcg-svg-point" paint-order="stroke fill markers" d=" M 849.3599094567404 171.79487179487177 A 1.875 1.875 0 1 1 849.3599085192404 171.79299679518428 Z" fill-opacity="0.9"/><path fill="#c74440" stroke="none" class="dcg-svg-point" paint-order="stroke fill markers" d=" M 851.2349094567404 171.79487179487177 A 3.75 3.75 0 1 1 851.2349075817406 171.79112179549676 L 849.3599094567404 171.79487179487177 A 1.875 1.875 0 1 0 849.3599085192404 171.79674679455925 Z" fill-opacity="0.9"/><path fill="white" stroke="none" class="dcg-svg-point" paint-order="stroke fill markers" d=" M 849.3599094567404 171.79487179487177 A 1.875 1.875 0 1 1 849.3599085192404 171.79299679518428 Z" fill-opacity="0.9"/><path fill="#c74440" stroke="none" class="dcg-svg-point" paint-order="stroke fill markers" d=" M 827.0900402414487 171.79487179487177 A 3.75 3.75 0 1 1 827.0900383664489 171.79112179549676 L 825.2150402414487 171.79487179487177 A 1.875 1.875 0 1 0 825.2150393039487 171.79674679455925 Z" fill-opacity="0.9"/><path fill="white" stroke="none" class="dcg-svg-point" paint-order="stroke fill markers" d=" M 825.2150402414487 171.79487179487177 A 1.875 1.875 0 1 1 825.2150393039487 171.79299679518428 Z" fill-opacity="0.9"/><path fill="#c74440" stroke="none" class="dcg-svg-point" paint-order="stroke fill markers" d=" M 827.0900402414487 171.79487179487177 A 3.75 3.75 0 1 1 827.0900383664489 171.79112179549676 L 825.2150402414487 171.79487179487177 A 1.875 1.875 0 1 0 825.2150393039487 171.79674679455925 Z" fill-opacity="0.9"/><path fill="white" stroke="none" class="dcg-svg-point" paint-order="stroke fill markers" d=" M 825.2150402414487 171.79487179487177 A 1.875 1.875 0 1 1 825.2150393039487 171.79299679518428 Z" fill-opacity="0.9"/><path fill="#c74440" stroke="none" class="dcg-svg-point" paint-order="stroke fill markers" d=" M 827.0900402414487 171.79487179487177 A 3.75 3.75 0 1 1 827.0900383664489 171.79112179549676 L 825.2150402414487 171.79487179487177 A 1.875 1.875 0 1 0 825.2150393039487 171.79674679455925 Z" fill-opacity="0.9"/><path fill="white" stroke="none" class="dcg-svg-point" paint-order="stroke fill markers" d=" M 825.2150402414487 171.79487179487177 A 1.875 1.875 0 1 1 825.2150393039487 171.79299679518428 Z" fill-opacity="0.9"/><path fill="#c74440" stroke="none" class="dcg-svg-point" paint-order="stroke fill markers" d=" M 827.0900402414487 171.79487179487177 A 3.75 3.75 0 1 1 827.0900383664489 171.79112179549676 L 825.2150402414487 171.79487179487177 A 1.875 1.875 0 1 0 825.2150393039487 171.79674679455925 Z" fill-opacity="0.9"/><path fill="white" stroke="none" class="dcg-svg-point" paint-order="stroke fill markers" d=" M 825.2150402414487 171.79487179487177 A 1.875 1.875 0 1 1 825.2150393039487 171.79299679518428 Z" fill-opacity="0.9"/><path fill="#c74440" stroke="none" class="dcg-svg-point" paint-order="stroke fill markers" d=" M 802.9451710261569 171.79487179487177 A 3.75 3.75 0 1 1 802.9451691511571 171.79112179549676 L 801.0701710261569 171.79487179487177 A 1.875 1.875 0 1 0 801.0701700886569 171.79674679455925 Z" fill-opacity="0.9"/><path fill="white" stroke="none" class="dcg-svg-point" paint-order="stroke fill markers" d=" M 801.0701710261569 171.79487179487177 A 1.875 1.875 0 1 1 801.0701700886569 171.79299679518428 Z" fill-opacity="0.9"/><path fill="#c74440" stroke="none" class="dcg-svg-point" paint-order="stroke fill markers" d=" M 802.9451710261569 171.79487179487177 A 3.75 3.75 0 1 1 802.9451691511571 171.79112179549676 L 801.0701710261569 171.79487179487177 A 1.875 1.875 0 1 0 801.0701700886569 171.79674679455925 Z" fill-opacity="0.9"/><path fill="white" stroke="none" class="dcg-svg-point" paint-order="stroke fill markers" d=" M 801.0701710261569 171.79487179487177 A 1.875 1.875 0 1 1 801.0701700886569 171.79299679518428 Z" fill-opacity="0.9"/><path fill="#c74440" stroke="none" class="dcg-svg-point" paint-order="stroke fill markers" d=" M 802.9451710261569 171.79487179487177 A 3.75 3.75 0 1 1 802.9451691511571 171.79112179549676 L 801.0701710261569 171.79487179487177 A 1.875 1.875 0 1 0 801.0701700886569 171.79674679455925 Z" fill-opacity="0.9"/><path fill="white" stroke="none" class="dcg-svg-point" paint-order="stroke fill markers" d=" M 801.0701710261569 171.79487179487177 A 1.875 1.875 0 1 1 801.0701700886569 171.79299679518428 Z" fill-opacity="0.9"/><path fill="#c74440" stroke="none" class="dcg-svg-point" paint-order="stroke fill markers" d=" M 778.8003018108651 171.79487179487177 A 3.75 3.75 0 1 1 778.8002999358653 171.79112179549676 L 776.9253018108651 171.79487179487177 A 1.875 1.875 0 1 0 776.9253008733651 171.79674679455925 Z" fill-opacity="0.9"/><path fill="white" stroke="none" class="dcg-svg-point" paint-order="stroke fill markers" d=" M 776.9253018108651 171.79487179487177 A 1.875 1.875 0 1 1 776.9253008733651 171.79299679518428 Z" fill-opacity="0.9"/><path fill="#c74440" stroke="none" class="dcg-svg-point" paint-order="stroke fill markers" d=" M 778.8003018108651 171.79487179487177 A 3.75 3.75 0 1 1 778.8002999358653 171.79112179549676 L 776.9253018108651 171.79487179487177 A 1.875 1.875 0 1 0 776.9253008733651 171.79674679455925 Z" fill-opacity="0.9"/><path fill="white" stroke="none" class="dcg-svg-point" paint-order="stroke fill markers" d=" M 776.9253018108651 171.79487179487177 A 1.875 1.875 0 1 1 776.9253008733651 171.79299679518428 Z" fill-opacity="0.9"/><path fill="#c74440" stroke="none" class="dcg-svg-point" paint-order="stroke fill markers" d=" M 778.8003018108651 171.79487179487177 A 3.75 3.75 0 1 1 778.8002999358653 171.79112179549676 L 776.9253018108651 171.79487179487177 A 1.875 1.875 0 1 0 776.9253008733651 171.79674679455925 Z" fill-opacity="0.9"/><path fill="white" stroke="none" class="dcg-svg-point" paint-order="stroke fill markers" d=" M 776.9253018108651 171.79487179487177 A 1.875 1.875 0 1 1 776.9253008733651 171.79299679518428 Z" fill-opacity="0.9"/><path fill="#c74440" stroke="none" class="dcg-svg-point" paint-order="stroke fill markers" d=" M 778.8003018108651 171.79487179487177 A 3.75 3.75 0 1 1 778.8002999358653 171.79112179549676 L 776.9253018108651 171.79487179487177 A 1.875 1.875 0 1 0 776.9253008733651 171.79674679455925 Z" fill-opacity="0.9"/><path fill="white" stroke="none" class="dcg-svg-point" paint-order="stroke fill markers" d=" M 776.9253018108651 171.79487179487177 A 1.875 1.875 0 1 1 776.9253008733651 171.79299679518428 Z" fill-opacity="0.9"/></g></g><g id="labels-6adacb3b"/><g id="labels-6adacb3b"/></g></svg>